<svg width="256" height="256" version="1.1" viewBox="0 0 67.733 67.733" xmlns="http://www.w3.org/2000/svg"><circle cx="33.867" cy="33.867" r="33.867" fill="#f89906" stroke-width=".26554"/><path d="m30.583 4.7865c-0.21219 0.0254-0.39304 0.0599-0.5565 0.10405-0.72429 0.10187-0.9329 0.42679-1.4113 1.2352-0.50244 0.84901-0.89314 2.1353-1.1111 3.4424-0.0085 0.0482-0.0164 0.0959-0.02443 0.14413-0.0049 0.0309-0.0093 0.0614-0.01379 0.0921-0.17617 1.0942-0.23618 2.1806-0.12346 3.0464 0.03201 0.16103 0.06933 0.31911 0.11406 0.47378 0.24635 0.7345 0.63361 1.42 1.1594 2.0518 0.20261 0.22373 0.41885 0.44449 0.63986 0.65551 0.05789 0.0518 0.11543 0.10687 0.1736 0.1548 0.84548 0.69691 1.6769 1.2661 1.8889 1.2966 0.15794-0.0123 0.25554-0.0753 0.30833-0.17107 0.29857-0.25155-0.1947-1.1178-1.2603-2.1132-0.89136-0.83266-1.1777-1.2107-1.1663-1.9872 0.0078-0.0986 0.01842-0.20112 0.03509-0.31398 0.02255-0.19128 0.05221-0.3989 0.09275-0.64361 0.26258-1.585 0.45067-2.4982 0.97765-2.9317 0.08512-0.0978 0.18897-0.17273 0.32212-0.22434 0.02705-0.0183 0.05491-0.0426 0.08086-0.0527 0.10518-0.0403 0.31114-0.0496 0.5753-0.0371 0.36745-0.0541 0.8247-3e-3 1.4051 0.14162 0.62261 0.11089 1.3768 0.28171 2.3025 0.49821 0.39678 0.0927 0.74559 0.16605 1.0742 0.23064 0.09306 0.0185 0.18665 0.0378 0.27449 0.0538 0.6365 0.11587 1.1396 0.17103 1.5197 0.15604 0.03115-9.5e-4 0.06131-4e-3 0.09088-6e-3 0.02957-3e-3 0.05595-6e-3 0.08398-0.01 0.16198-0.0316 0.29592-0.0828 0.41174-0.1479 0.57559-0.21689 0.56536-0.83103 0.11344-1.9221-0.7689-1.8563-2.5175-2.8163-5.5964-3.0583-0.07293-9e-3 -0.13949-0.0212-0.2137-0.0289-0.79958-0.082-1.5699-0.12537-2.164-0.12971-6.42e-4 8e-5 -0.0016-1.1e-4 -0.0026 0zm0.98642 5.3463c-0.39879-0.01-0.59306 0.10625-0.65302 0.47754-0.0106 0.011-0.02146 0.0225-0.03198 0.0338-0.03744 0.16943-0.03359 0.41568-0.0081 0.74201 0.0054 0.0561 8e-3 0.0986 0.01379 0.15918 0.06113 0.63438 0.20182 1.0565 0.53708 1.4383 0.30087 0.31455 0.76394 0.59969 1.5097 0.97578 0.90594 0.45683 2.1885 0.82277 3.1792 0.92875 0.10787 8e-3 0.21586 0.0139 0.31711 0.015 0.0013 1e-5 0.0023-1e-5 0.0038 0h6.25e-4c0.90068 9e-3 1.4912-0.0593 1.8713-0.29204 0.0043-3e-3 0.0095-5e-3 0.01379-8e-3l6.28e-4 -6.3e-4c0.01219-8e-3 0.02214-0.0169 0.03385-0.0251 0.01515-0.011 0.02821-0.0233 0.04261-0.0345 0.01011-0.011 0.01928-0.0239 0.02883-0.0358 0.07435-0.10869 0.13206-0.25426 0.18487-0.42614 0.05494-0.15846 0.10402-0.34071 0.15542-0.57469 0.1587-0.72274 0.16341-1.4397 0.01011-1.593-0.33132-0.33132-6.0952-1.7552-7.2095-1.7811zm0.39544 1.3668c0.15685 0 0.45129 0.17895 0.75517 0.43243 0.08505 0.0562 0.17464 0.11782 0.26885 0.1855 0.01011 8e-3 0.01865 0.0127 0.02883 0.02 0.17966 0.13002 0.37008 0.27519 0.57719 0.44496 0.51932 0.42566 0.91247 0.78429 1.0397 0.94066-0.76235-8.7e-4 -2.5107-1.27-2.864-2.001 0.0072-4e-3 0.01238-9e-3 0.02383-9e-3 0.02127-9.6e-4 0.04906 5e-3 0.07959 0.0138 5e-3 -3e-3 0.01121-3e-3 0.01692-5e-3 0.0179-0.014 0.04124-0.0231 0.07395-0.0231zm1.2026 3.799c-0.14566 0.014-0.18859 0.14763-0.16106 0.44809-0.0058 0.0182-0.01219 0.0355-0.0163 0.0576-9.56e-4 6e-3 -0.0022 0.011-0.0032 0.0176-0.0041 0.0241-0.0054 0.0567-0.0088 0.0833 0.0207 0.18242 0.06242 0.41729 0.12346 0.72257 0.11914 0.59562 0.34631 1.2574 0.56403 1.6795 0.14665 0.19241 0.33911 0.36256 0.55024 0.50449 0.0045 3e-3 0.0087 6e-3 0.01316 0.01 0.11957 0.0793 0.24361 0.15158 0.37226 0.20807 0.24758 0.0949 0.51206 0.13878 0.78212 0.13599 0.64063-0.0814 1.314-0.4528 1.8111-1.0848 0.34702-0.44117 0.56207-0.77202 0.63234-1.029 0.24563-0.62862-0.25254-0.85124-1.7284-1.061-0.88813-0.12621-1.9819-0.37682-2.431-0.55713-0.22938-0.092-0.39226-0.14505-0.5001-0.13473zm-6.188 0.83915c-0.38968 6.5e-4 -0.62641 0.23066-0.68811 0.66367-0.01047 0.0223-0.02429 0.0395-0.03385 0.0634-0.04952 0.14762 0.0056 0.50804 0.13537 0.99145 0.02122 0.0847 0.04924 0.17585 0.07645 0.26633 0.03052 0.10284 0.06371 0.20862 0.09963 0.31963 6.89e-4 3e-3 0.0011 4e-3 0.0018 6e-3 0.21489 0.66314 0.51818 1.4537 0.87926 2.2567 0.42296 0.94075 0.73588 1.6 1.0058 2.0725 0.0056 0.0174 0.01908 0.0498 0.02383 0.0659 0.11461 0.38533 0.34464 0.65209 0.65552 0.81032 4.13e-4 2e-4 8.4e-4 4.1e-4 0.0012 6.2e-4 0.20831 0.1561 0.42541 0.21867 0.69312 0.23878 0.26061-6e-3 0.54472-0.0448 0.84479-0.1171 0.12013-0.0338 0.24468-0.0732 0.37414-0.11844 0.62804-0.24002 1.3691-0.62515 2.0249-1.0303 0.843-0.59629 1.5224-1.1862 1.5667-1.3687-0.0041-0.0191-0.02295-0.0464-0.04888-0.0771l0.10842-0.0872-0.77146-0.43807c-0.16223-0.11162-0.3407-0.23005-0.54209-0.3572-0.23367-0.13428-0.48647-0.27279-0.75392-0.40924-0.08809-0.0449-0.18125-0.0972-0.27324-0.1479-0.94335-0.60153-2.1249-1.4831-2.8709-2.1571-1.093-0.9874-1.9538-1.4473-2.5087-1.4464zm-2.869 1.5041-0.60727 0.60729c-0.03008 0.0235-0.05863 0.0436-0.09024 0.0708l-0.0019 3e-3 -0.23438 0.25381-0.40359 0.4036c-0.97224 0.97223-1.2715 1.5463-1.3267 2.7468-1.56e-4 9.5e-4 -4.68e-4 3e-3 -6.25e-4 4e-3 -0.01729 0.27868-0.02816 0.57708-0.03008 0.91686-0.0067 1.1729 0.225 2.4006 0.61792 3.522 0.04374 0.12027 0.09092 0.23829 0.1385 0.35597 0.51012 1.0834 1.3648 2.2416 2.1947 3.0226 0.52575 0.3998 1.1066 0.71726 1.741 0.92626 0.11433 0.0377 0.2041 0.0614 0.30583 0.0921 1.0059 0.15279 1.3688 5e-3 1.4633-0.89555 0.06021-0.41909 0.05991-0.99351 0.02443-1.7591-0.06495-1.4019-0.35923-3.0317-0.77836-4.5479-6.98e-4 -3e-3 -0.0011-5e-3 -0.0019-8e-3 -0.0057-0.0212-0.01237-0.0403-0.01818-0.0616-0.06457-0.23094-0.13186-0.4583-0.2018-0.68247-0.03314-0.10612-0.06732-0.21009-0.10151-0.31335-0.49458-1.5079-1.0964-2.8044-1.6889-3.4932zm17.209 3.1943c-1.0383-0.0363-2.1841 0.21467-3.413 0.77899-0.94121 0.43221-2.084 1.2054-2.54 1.7178-0.4477 0.50307-0.63233 0.79906-0.60351 1.2628-5e-3 0.034-0.01047 0.0677-0.01379 0.10211 0.01157 0.31016 0.10519 0.69116 0.27512 1.2421 0.10067 0.3264 0.21146 0.6446 0.3309 0.95569 0.78871 1.7416 2.1981 3.8358 3.3992 4.882 9.56e-4 9.6e-4 0.0018 3e-3 0.0032 4e-3 0.16692 0.13227 0.33611 0.25894 0.5095 0.37539 0.34477 0.23153 0.65228 0.46942 0.93754 0.73323 0.0023 3e-5 0.0048 9.5e-4 7e-3 9.5e-4 0.06587 0 0.20083 0.1469 0.37351 0.38354 0.01109 0.0122 0.02288 0.0223 0.03384 0.0345l0.0012 9.5e-4 6.26e-4 6.2e-4c0.26717 0.29564 0.52006 0.62773 0.77334 1.0159 0 0 6.27e-4 6.4e-4 6.27e-4 6.4e-4 0.12658 0.19401 0.25283 0.40206 0.38166 0.62668 2.44e-4 3.2e-4 3.05e-4 9.5e-4 6.26e-4 9.6e-4 0.12877 0.22457 0.26 0.46554 0.39482 0.72572 0.13263 0.2559 0.26897 0.53145 0.41111 0.8266 0.0026 5e-3 5e-3 0.01 0.0075 0.015v6.4e-4c3.22e-4 6.4e-4 9.3e-4 9.6e-4 0.0012 3e-3 0.1253 0.26046 0.25194 0.49927 0.37852 0.74577 0.74157 1.3999 1.5279 2.5112 1.8713 2.6014 1.0669 0.28045 1.531 0.29585 2.0192-0.0463 0.2057-0.0954 0.36651-0.2422 0.4882-0.4368 0.0018-3e-3 0.0038-4e-3 0.0057-6e-3 7.35e-4 -9.6e-4 0.0011-4e-3 0.0019-5e-3 0.31481-0.51558 0.34874-1.3737 0.11782-2.6096-0.0072-0.0385-0.01368-0.091-0.02068-0.13284-0.18773-1.1204-0.30201-3.3648-0.26886-5.2423 0.01678-0.11125 0.03426-0.22052 0.05577-0.32089-0.01121-0.25262-0.02643-0.49612-0.04199-0.73887-1.3e-5 -3e-3 1.6e-5 -6e-3 0-9e-3 -0.02773-5.8611-2.321-9.3637-5.879-9.4882zm0.22498 1.6833c0.67653-0.0181 1.3594 0.0656 2.0023 0.27574 0.98229 0.32104 1.9291 2.0002 2.2179 3.3628 0.10204 0.7871 0.02646 1.4659-0.27261 1.6507-0.18114 0.11198-1.7122 0.33984-3.4023 0.50638-1.1815 0.11637-1.9088 0.18387-2.4366 0.14789-0.25668-0.0523-0.47658-0.14295-0.69939-0.29267-0.15586-0.0418-0.2949-0.0874-0.39168-0.14226-3.21e-4 -2.2e-4 -9.33e-4 -2.9e-4 -0.0012-6.2e-4 -0.05606-0.0222-0.10846-0.0479-0.16232-0.072-0.2017-0.16691-0.41475-0.37025-0.6856-0.64112-0.45772-0.45773-0.86014-0.9711-1.093-1.3693-0.02666-0.15609-0.03142-0.31166-0.01316-0.46563-0.02243-0.22225 0.046-0.43551 0.18487-0.69502 0.01262-0.0235 0.02859-0.0457 0.04199-0.0688 0.0076-0.016 0.01294-0.0333 0.02131-0.0488 0.0351-0.0656 0.07341-0.13026 0.1153-0.19304 0.58702-0.887 1.8037-1.4968 3.1141-1.7548 0.47234-0.1132 0.96333-0.18597 1.4602-0.19928zm0.41926 0.53519c-0.49097 0.0245-0.95271 0.41281-1.1732 1.2559l-0.24316 0.92939-0.36223-0.98015c-0.29747-0.80413-0.47539-0.88628-0.99206-0.45748-0.55353 0.45987-0.55286 0.63112 5e-3 1.4276 0.34862 0.49775 0.63359 1.2475 0.63359 1.6657h-6.27e-4c0 1.1176 0.84724 0.92821 0.90558-0.20241 0.0343-0.66508 0.10781-0.74218 0.23814-0.25004 0.48864 1.845 2.7067 1.1101 2.7067-0.89681 0-1.5621-0.89948-2.5326-1.7178-2.4917zm-11.672 2.9204c-0.15176 0.01-0.31576 0.0797-0.48632 0.20493-0.2605 0.12579-0.50745 0.35673-0.68748 0.69312-0.21108 0.39443-0.34326 0.70122-0.38667 0.95134-0.0026 0.0143-0.0026 0.0273-0.0044 0.0413 0.0057 0.0229 0.01831 0.045 0.0257 0.0677 0.0061 0.22299 0.10801 0.38917 0.30458 0.48443 0.10726 0.11259 0.2318 0.22244 0.38855 0.32715 6.42e-4 3.2e-4 0.0012 9.4e-4 0.0018 9.6e-4 0.11968 0.0568 0.25239 0.11368 0.40422 0.17485 1.5131 0.60987 2.7416 0.55211 3.2344-0.0915 1.75e-4 -2.3e-4 4.54e-4 -4e-4 6.27e-4 -6.2e-4 0.1313-0.16391 0.213-0.3734 0.25068-0.63861 0.1117-0.78657-0.06651-0.96261-0.97577-0.96261-0.61202 0-1.2239-0.28877-1.3593-0.64173-0.16381-0.42687-0.41419-0.62971-0.71067-0.61102zm-10.317 0.83664c-0.53672 0.02-1.1137 0.24768-1.2741 0.66555-0.04579 0.11929-0.08662 0.30946-0.12409 0.52266-0.01269 0.0329-0.02673 0.0643-0.03886 0.0977-1.61e-4 3.1e-4 -3.08e-4 9.3e-4 -6.29e-4 9.5e-4 -0.16729 0.93175-0.15842 2.4143 0.02819 3.309 0.02827 0.0828 0.05602 0.15157 0.08335 0.22185 0.09271 0.21399 0.18294 0.37068 0.28013 0.48319 0.10494 0.14855 0.21262 0.24879 0.29267 0.24879 0.01979 0 0.0892-0.0199 0.13599-0.0307 0.0013 5e-5 0.0024 5.8e-4 0.0038 6.2e-4 0.0094-1e-5 0.01811 9.6e-4 0.02757 6.2e-4 0.05548-3.1e-4 0.11576-9e-3 0.17923-0.0194 0.01157-3e-3 0.02207-3e-3 0.03385-5e-3 0.03203-6e-3 0.06976-0.0191 0.10402-0.0283 0.04111-0.0122 0.07748-0.0187 0.12221-0.0333 0.0797-0.0257 0.19095-0.0545 0.29329-0.0828 0.03975-0.011 0.07251-0.0212 0.11532-0.0327 0.04962-0.013 0.09537-0.0255 0.14853-0.0387 0.49151-0.13163 1.095-0.27305 1.5573-0.36036 0.15822-0.0298 0.29001-0.0651 0.42177-0.10028 0.57268-0.16872 0.91114-0.43219 1.0015-0.75704 0.0742-0.0354 0.15468-0.0722 0.17861-0.0908 0.10074-0.0786-0.42911-0.74097-1.1769-1.4721-0.40698-0.39791-0.76927-0.8324-1.019-1.2008-0.04961-0.093-0.09354-0.18243-0.12409-0.26196-0.04474-0.0513-0.06826-0.0811-0.11217-0.13161-0.06629-0.13421-0.10402-0.24635-0.10402-0.32588 0-0.41191-0.4967-0.59963-1.0334-0.57969zm11.163 3.9156c-0.74344-4e-3 -1.4106 0.10686-1.9622 0.33529-1.1883 0.49221-1.6283 1.0046-1.6106 2.2003-0.0242 0.32753-0.0079 0.68532 0.05515 1.0767 0.1165 0.7229 0.2537 1.2642 0.46751 1.6984 0.09395 0.16262 0.20945 0.31013 0.34719 0.45185 0.20941 0.23578 0.47871 0.43664 0.82975 0.62795 0.02574 0.0154 0.05795 0.0322 0.0846 0.0476 0.18502 0.10795 0.38467 0.2183 0.6173 0.33653 0.23066 0.11722 0.4429 0.21869 0.64738 0.31209 0.01145 4e-3 0.01985 8e-3 0.03134 0.0121 1.1681 0.41993 1.8805 0.58228 2.3501 0.40484 0.18977-0.0934 0.34359-0.25069 0.47566-0.45812 0.01747-0.0251 0.03362-0.0535 0.05014-0.0809 0.01704-0.0301 0.0352-0.0575 0.05139-0.0896 0.04635-0.089 0.08938-0.18755 0.1291-0.29768 0.08688-0.24093 0.16065-0.53185 0.23-0.8805 0.02686-0.13508 0.05995-0.26763 0.09714-0.39859 0.03833-0.1227 0.07887-0.24465 0.12597-0.3641 0.013-0.0377 0.02535-0.0758 0.03886-0.11284 0.0013-5e-3 0.0031-9e-3 0.0044-0.0138 0.3027-0.75622 0.78527-1.4293 1.4345-1.9854l0.11594-0.0989c0.04071-0.0198 0.08128-0.0393 0.12221-0.0546 0.09063-0.0887 0.16848-0.17258 0.23752-0.25381l0.88552-0.75831-1.5091-0.63296c-0.06043-0.0327-0.11763-0.0665-0.18174-0.0977-0.11918-0.0581-0.24341-0.10809-0.36662-0.15981-0.10842-0.032-0.24212-0.0645-0.36286-0.0965-1.2226-0.43459-2.4032-0.66427-3.4355-0.66931zm21.609 1.5022c-2.4533 0.0371-3.6049 0.52887-3.8686 1.7152-0.0045 0.01-0.01011 0.0174-0.01441 0.0269-0.05163 0.19324-0.08023 0.40208-0.08023 0.63171 0 0.45758 0.03859 0.74825 0.13223 0.90871 0.11105 0.0774 0.26145 0.10772 0.45247 0.0914 0.02574-3e-3 0.04997 3e-3 0.0752 3e-3 0.46136-0.17056 0.85954 0.26393 1.3825 1.5085 0.24 0.57114 0.46574 0.99003 0.72696 1.2722 0.05008 0.0585 0.10412 0.11101 0.16357 0.15543 0.21002 0.17085 0.44654 0.26549 0.73198 0.28577 0.18653-0.0142 0.39069-0.0346 0.63735-0.0677 0.05743-8e-3 0.11215-0.0177 0.16858-0.0263 0.49968-0.12563 1.1111-0.36712 1.8945-0.72259 0.17478-0.0793 0.31976-0.14694 0.46313-0.21432 0.17084-0.10199 0.32274-0.20637 0.45999-0.31334 0.91308-0.48112 0.90341-0.7738 0.67683-2.0205-0.43646-2.4016-1.5125-3.2713-4.0021-3.2338zm-29.566 0.14977c-0.62018-0.0333-1.2599 0.18549-1.818 0.69063-0.44247 0.40042-0.68889 0.75516-0.7489 1.0472-0.0065 0.0194-0.01824 0.0406-0.02318 0.0596-5.8e-5 0.0317 0.0062 0.0648 0.0081 0.0971 2.92e-4 8e-3 0.0012 0.0154 0.0018 0.0231 0.0031 0.0399 0.0023 0.0788 0.01011 0.11966 0.02008 0.10576 0.05622 0.19702 0.1009 0.28265 0.17665 0.1835 0.49376 0.30469 0.95132 0.34594 0.08654 8e-3 0.17752 0.0124 0.27386 0.0143 0.76474 0.0164 1.7755 0.19574 2.2461 0.39796 0.3063 0.13162 0.60087 0.22769 0.86735 0.29392 0.19949 0.0201 0.46525 0.0451 0.55212 0.0571 0.04488 6e-3 0.08478 6e-3 0.12158 5e-3 0.2118-0.048 0.26674-0.31923 0.19678-0.69313-0.05496-0.12662-0.13912-0.29203-0.2112-0.44243-0.02166-0.0634-0.03818-0.11527-0.06268-0.1855-0.45362-1.3012-1.4324-2.0572-2.466-2.1126zm-6.5226 0.50449c-0.72927 9e-3 -1.4614 0.3219-1.8105 0.90119-0.06882 0.11418-0.11322 0.21718-0.1454 0.31711-0.02979 0.0704-0.05112 0.13832-0.06328 0.20493 0.0036 0.0617 0.0089 0.12338 0.02006 0.18676 0.03859 0.14414 0.09261 0.29053 0.16044 0.43618 0.18348 0.25868 0.50218 0.56352 1.0052 0.9883 0.5151 0.43494 0.99662 0.80098 1.3305 1.0253 0.20689 0.098 0.36824 0.15123 0.50011 0.14663 0.20851-0.0536 0.40453-0.18805 0.61479-0.38917 0.01109-0.0138 0.0217-0.0289 0.03258-0.0433 0.10534-0.14714 0.20364-0.3131 0.28389-0.50072 2.21e-4 -6.4e-4 3.05e-4 -9.6e-4 6.26e-4 -3e-3 0.01206-0.0334 0.02029-0.0699 0.03134-0.10405 0.40273-0.74439 0.26436-1.9028-0.44495-2.6121-0.38246-0.38246-0.94814-0.56153-1.5154-0.55524zm-9.9162 0.76144c-2.805 0-3.773 0.24246-4.4332 1.7065-0.49689 0.90037-0.84705 2.4708-0.94944 4.0246-3.84e-4 0.027 2.21e-4 0.0544 0 0.0815-0.067 1.1268 0.0463 2.1744 0.33841 3.1141 0.05565 0.23315 0.11574 0.46204 0.18487 0.68058 0.26684 0.59359 0.61748 1.1926 0.96448 1.605 0.40526 0.48161 0.7404 0.83415 1.0165 1.0622 0.15154 0.0717 0.28958 0.11356 0.40422 0.12283 0.75134 0.32897 0.787-0.8602 0.29329-3.9946-0.14432-0.91619-0.25275-1.8619-0.31335-2.654-0.0084-0.15554-0.01606-0.30753-0.0163-0.44307-8.9e-5 -0.01 4.4e-5 -0.0211 0-0.0313 3.2e-4 -0.1149 4e-3 -0.22608 0.01072-0.32903 0.0056-0.111 0.01441-0.21778 0.02632-0.31899 3.2e-4 -3e-3 9.33e-4 -6e-3 0.0012-9e-3 0.03775-0.31522 0.10687-0.59414 0.20618-0.8617 0.03599-0.12987 0.08356-0.24276 0.14038-0.34656 0.01758-0.0447 0.03656-0.0886 0.0564-0.13097 0.06331-0.16428 0.14253-0.31116 0.23125-0.4481 0.07271-0.12694 0.15021-0.23558 0.23125-0.33652 0.15341-0.15387 0.31856-0.2988 0.49321-0.43181 0.3424-0.20414 0.79754-0.34095 1.4771-0.47441 0.0179-4e-3 0.0339-9e-3 0.05202-0.0124 0.42167-0.12099 0.91068-0.24161 1.5172-0.37538 0.18741-0.0413 0.3625-0.0982 0.52016-0.16231 0.18548-0.0845 0.32815-0.17103 0.42427-0.25508 0.16359-0.12214 0.26509-0.25706 0.26509-0.40045 0-0.21013-1.4139-0.38228-3.1422-0.38228zm30.818 0.95446c-0.18428-0.0152-0.37552 0.0298-0.56528 0.14601-0.55103 0.33758-0.96623 1.0054-1.1563 1.6871-4e-3 0.0121-0.0087 0.0208-0.01254 0.0327-0.26873 0.80619-0.22194 1.3584 0.15229 1.8093 0.22217 0.26771 0.69382 0.46614 1.1725 0.51892 0.04314 5e-3 0.08601 5e-3 0.1291 8e-3 0.03357-3e-3 0.06599-3e-3 0.09965-5e-3 0.12792-0.0127 0.24342-0.0265 0.34907-0.042 0.01182-3e-3 0.02609-3e-3 0.03761-5e-3 0.01085-9.5e-4 0.0183-4e-3 0.02883-6e-3 0.32708-0.0593 0.55858-0.15493 0.72446-0.30268l0.0018-3e-3c5e-3 -6e-3 0.01023-0.011 0.01503-0.0176 2.59e-4 -3.2e-4 3.04e-4 -9.3e-4 6.25e-4 -9.5e-4 0.03373-0.0487 0.06027-0.10686 0.08335-0.17109 0.14493-0.21226 0.22327-0.51488 0.2676-0.96699 0.13908-1.4189-0.52942-2.6158-1.328-2.6823zm23.671 0.3359c-0.60994 0.0138-1.1808 0.13547-1.6068 0.38355-0.55932 0.32565-0.54895 0.4144 0.10214 0.44055 0.22913 0.1121 0.52932 0.22598 0.88678 0.32589 1.2799 0.25024 1.6405 0.58903 2.3388 2.1678 0.39586 0.89488 0.81596 2.5864 1.0171 4.0253 0.11163 0.6054 0.18175 1.1488 0.19491 1.5555 3e-3 0.0456 7e-3 0.0905 9e-3 0.13473 0.0193 0.12507 0.04 0.2368 0.0608 0.34719 0.0514 0.92613 0.23895 1.3353 0.48883 1.2189 0.072 0.0329 0.14591 0.0169 0.22122-0.0501 6.4e-4 -3.3e-4 9.6e-4 -6.2e-4 2e-3 -9.5e-4l9.6e-4 -9.6e-4c0.22033-0.20014 0.44984-0.82842 0.66116-1.897 0.0641-0.32405 0.11105-0.66633 0.1429-1.019 0.24484-2.271-0.18936-5.1797-1.0491-6.3541-0.11787-0.16101-0.2748-0.3076-0.45686-0.44181-0.14539-0.14808-0.29202-0.27232-0.45059-0.36976-0.0786-0.0298-0.15913-0.0585-0.24378-0.0853-0.12231-0.0342-0.2633-0.0611-0.40109-0.089-0.60243-0.19979-1.281-0.30524-1.9183-0.29079zm-49.482 0.92376c-0.55911-0.013-1.213 0.0307-2.0556 0.12087-1.9116 0.20474-2.9681 0.41455-3.507 1.0504-0.035 0.0298-0.07458 0.0571-0.10717 0.0885 0 0-6.27e-4 6.4e-4 -6.27e-4 6.4e-4 -0.3234 0.41369-0.43458 1.0184-0.42866 1.9064 0.01248 0.48147 0.05209 1.0411 0.10779 1.7153 0.02903 0.35134 0.06177 0.69265 0.09399 1.0328 0.28166 2.5631 0.79957 3.7747 2.0399 4.4069 0.15903 0.0648 0.31891 0.12939 0.50449 0.19553 0.6929 0.24693 2.3797 0.44078 4.0942 0.54772 0.13802 6e-3 0.27211 9e-3 0.40986 0.0133 0.27896 9e-3 0.55631 0.0176 0.83789 0.0219l0.16984 3e-3c0.89731 4e-3 1.7028-0.0177 2.3106-0.0651l0.831 0.011-0.06643-4.2283c-0.02973-1.8957-0.08019-3.0853-0.29392-3.9131-0.04579-0.31216-0.0933-0.56132-0.14288-0.64112-0.03915-0.0629-0.12257-0.14569-0.22436-0.23563-0.39957-0.60765-1.0507-0.9634-2.1301-1.4502-0.84228-0.37981-1.511-0.5586-2.4429-0.58031zm10.538 0.58658c-1.3344 0-1.994 0.24176-2.5569 0.93691-0.17967 0.22188-0.34935 0.58071-0.50261 1.0171-0.1955 0.53126-0.36307 1.1942-0.4882 1.9083-0.0013 0.0274-0.0019 0.0674-0.0032 0.0953-0.22253 1.3322-0.2932 2.7656-0.10466 3.6637 0.03436 0.16364 0.07995 0.38236 0.12221 0.58406 0.03585 0.44439 0.08129 0.85302 0.14915 1.1926 0.01444 0.0591 0.02962 0.12836 0.04387 0.18364 0.20396 0.62661 0.46869 1.1269 0.78713 1.4508 0.20015 0.19588 0.48442 0.36026 0.81408 0.48945 0.32698 0.11149 0.65047 0.19265 0.96323 0.24191 0.10735 9e-3 0.21979 0.0122 0.33466 0.0132 0.12517-5e-3 0.25027-9e-3 0.38981-0.0176 0.52301-0.0341 0.90162-0.0628 1.1832-0.1154 0.02082-8e-3 0.04303-0.0138 0.06328-0.022 0.01719-8e-3 0.03653-0.0124 0.05327-0.02 0.0099-4e-3 0.01795-0.01 0.02757-0.0138 0.14893-0.0695 0.27898-0.15317 0.38855-0.24944 0.02855-0.0501 0.05573-0.10941 0.0821-0.17422 0.22496-0.22887 0.32421-0.52089 0.2394-0.86797-0.0194-0.0793-0.02961-0.21477-0.03572-0.37351-2.2e-5 -5.8e-4 2.3e-5 -9.5e-4 0-3e-3 0.0013-0.0382 0.0081-0.10906 0.01011-0.15164-0.01246-0.33918 0.0076-0.85023 0.0445-1.4245 0.06186-0.85767 0.16701-1.8833 0.31084-2.9185 0.66751-4.8044 0.40203-5.4266-2.3156-5.4266zm37.536 1.0497c-0.28873 0-2.45 1.069-4.803 2.3752-0.33774 0.18748-0.68274 0.36857-1.0265 0.55275-0.62706 0.32638-1.2372 0.63607-1.8193 0.92687-0.0013 6.5e-4 -0.0026 9.5e-4 -0.0038 3e-3 -0.21592 0.1199-0.42921 0.23137-0.64299 0.34468-2.35e-4 1.2e-4 -3.92e-4 5.3e-4 -6.26e-4 6.4e-4 -1.0662 0.52291-1.9484 0.91821-2.3896 1.0585-0.41931 0.1333-0.75117 0.26776-1.0058 0.40108-0.0013 2.4e-4 -0.0035 9.6e-4 -0.0044 9.6e-4 -0.01706 0-0.03129 3e-3 -0.04763 4e-3h-6.25e-4c-0.03796 0.0178-0.07614 0.0362-0.10966 0.0552-0.06464 0.0456-0.11432 0.093-0.16357 0.14038-0.4296 0.31631-0.41713 0.60884-0.06769 0.82348 0.12478 0.12734 0.31886 0.23036 0.58095 0.30771 0.50684 0.09 1.3922 0.0981 2.8527 0.0614 6.42e-4 -7e-5 0.0012 7e-5 0.0019 0 0.31516-0.0372 0.63348-0.0757 0.95383-0.12534 0.37407-0.0581 0.71081-0.10284 1.0309-0.13975 1.4564-0.27378 2.0827-0.29858 2.7167 0.0934 0.6349 0.2148 1.0587 0.62624 1.4201 1.2703 0.25549 0.25202 0.49363 0.47643 0.71319 0.67683 0.23649 0.10893 0.50931 0.17404 0.80216 0.19991 0.22593-0.011 0.4834-0.0368 0.80218-0.0796 0.41551-0.0558 0.77544-0.13201 1.0873-0.2325 0.68011-0.28573 1.2441-0.74669 1.4552-1.3324 0.0303-0.0741 0.0577-0.14988 0.0783-0.22873 0.36086-1.3799-0.25789-4.0436-1.0798-5.7036-0.26158-0.5656-0.54064-1.0102-0.80906-1.2183-0.0167-9e-3 -0.0335-0.0159-0.0502-0.0245-0.16045-0.1347-0.31932-0.21056-0.47128-0.21056zm-57.215 0.18988c0.01989 3e-3 0.04072 8e-3 0.06204 0.0138 9.56e-4 2.7e-4 0.0016-2.7e-4 0.0026 0 6.41e-4 2.2e-4 0.0012 3.2e-4 0.0018 6.3e-4 0.0425 0.0142 0.08419 0.0384 0.12534 0.0702 0.0217 0.0162 0.04277 0.039 0.06392 0.0596 0.10188 0.0656 0.19259 0.19823 0.26948 0.39796 0.204 0.41604 0.36006 1.0212 0.43806 1.657 0.09878 0.71709 0.11286 1.4819-0.0081 2.0919-0.0023 0.01-0.0046 0.0218-7e-3 0.032-0.01146 0.0558-0.02332 0.10187-0.03509 0.15353-0.51809 2.0228-1.3374 0.61611-1.3374-2.5976 0-0.73031 0.03992-1.2493 0.12283-1.573 0.0065-0.0189 0.01206-0.0404 0.0188-0.0577 0.0035-0.0122 0.0076-0.0208 0.01134-0.0319 0.06911-0.1566 0.15868-0.22695 0.27136-0.21621zm26.223 1.1024c-1.7547-0.011-2.241 0.86851-2.5557 4.6219-0.17892 2.1342-0.1036 3.0475 0.57969 3.5559 0.13922 0.11954 0.31379 0.22177 0.53708 0.33655 0.22094 0.11356 0.62254 0.21652 1.1343 0.30268 0.32434 0.0421 0.7034 0.0748 1.0861 0.10723 0.79694 0.0639 1.6834 0.11051 2.5638 0.11844 0.39289 4e-3 0.73698 5e-3 1.0528 5e-3 1.0211-4e-3 1.62-0.0422 2.0173-0.18175 0.43572-0.17165 0.6123-0.48411 0.90996-1.0597 0.3872-0.74874 0.77427-1.2438 1.3681-1.5699 0.7199-0.47854 1.7658-0.62176 3.4775-0.57657 0.04483 9.6e-4 0.06512 6e-4 0.10906 3e-3 0.22892-3e-3 0.4373-8e-3 0.695-8e-3 1.5877 0 2.8141-0.10284 3.3108-0.26258 0.01971-0.0482 0.03009-0.10028 0.03009-0.15793 0-0.0217-0.0079-0.0425-0.01195-0.0639 0.02057-0.0146 0.03582-0.0294 0.04512-0.0444 0.14543-0.2353-0.08674-0.42741-0.5164-0.42741s-3.8585-1.0555-7.6194-2.3451-7.457-2.3478-8.2135-2.3526zm-8.7104 0.50763c0.10037-0.011 0.19937 0.0232 0.2958 0.0934 0.14479 0.0122 0.27465 0.24373 0.52455 0.71067 0.2212 0.41332 0.37143 1.3923 0.38918 2.384 2.02e-4 6e-3 3.05e-4 0.011 6.26e-4 0.0169 0.01023 0.14123 0.01494 0.28061 0.02006 0.41989-0.0014 0.0345-0.0012 0.0682-0.0032 0.10271-0.1282 2.3766-0.91475 3.3577-1.5141 1.8882-0.37718-0.92475-0.40739-4.1153-0.11718-5.2191 0.03517-0.10832 0.07361-0.19707 0.11718-0.24065 0.09491-0.0949 0.19145-0.14541 0.28703-0.15607zm29.055 1.2459c-0.06428-6e-3 -0.23181 0.043-0.50073 0.12848-0.43103 0.13691-2.0677 0.25142-3.6367 0.25506-1.6386 4e-3 -2.3775 0.0896-2.3438 0.28014-0.08898 0.0628-0.05497 0.14239 0.09903 0.2419 0.3633 0.23477 1.0696 0.36531 1.8713 0.40673 0.34138 9e-3 0.68984 6e-3 1.0466-9e-3 0.51554-0.0283 1.0194-0.0762 1.4652-0.14226 0.62408-0.11344 1.1464-0.28153 1.4182-0.502 0.05853-0.0474 0.08055-0.0681 0.13035-0.10905 0.0032-0.0147 0.0026-0.0292-0.0012-0.0425-0.0057-5e-3 -0.01645-9e-3 -0.02318-0.0138 0.40526-0.33215 0.57487-0.48565 0.47504-0.49448zm4.4903 4.9728c-0.03721-5.5e-4 -0.07912 4e-3 -0.11718 4e-3 -0.40652-0.01-0.84485 0.0266-1.2904 0.11709-0.83425 0.16968-4.0859 0.32481-7.2264 0.34469-5.0136 0.0318-6.9437 0.35552-6.7627 1.17-0.01319 0.0273-0.02463 0.055-0.03634 0.0828v6.4e-4c0.01492 0.0797 0.04311 0.16249 0.09839 0.25193 0.26419 0.4275 13.217 0.51384 15.692 0.10467 0.79467-0.13136 1.2976-0.37527 1.4897-0.66994 0.0937-0.0948 0.14853-0.19475 0.14853-0.2958 0-0.40312-0.35907-0.7203-0.91686-0.91058-0.06002-0.0307-0.12184-0.0593-0.18739-0.084-0.25848-0.0708-0.55741-0.11039-0.89178-0.11539z" stroke-width=".42782"/></svg>
