<svg xmlns="http://www.w3.org/2000/svg" width="45px" height="45px" viewBox="0 0 90.677 90.677"><path d="m17.357 0c1.093 3.209 2.2293 6.4345 3.3223 9.6465 1.663 4.828 2.7019 8.4672 3.1719 10.951v14.021h5.1836v-14.021l6.2363-20.598h-5.2422l-3.5371 13.596-3.6797-13.596h-5.4551zm24.861 8.5078c-2.33 0-4.1494 0.88148-5.4434 2.6465-0.993 1.303-1.4629 3.3182-1.4629 6.0762v9.0352c0 2.742 0.46989 4.7754 1.4629 6.0664 1.293 1.76 3.1134 2.6406 5.4434 2.6406 2.342 0 4.1621-0.88062 5.4531-2.6406 0.981-1.291 1.4512-3.3244 1.4512-6.0664v-9.0352c0-2.758-0.46917-4.7732-1.4512-6.0762-1.291-1.765-3.1101-2.6465-5.4531-2.6465zm10.752 0.3125v20.4c0 1.822 0.15606 3.0549 0.41406 3.8359 0.47 1.307 1.5067 1.916 3.0117 1.916 1.705 0 3.4788-1.036 5.3398-3.168v2.8145h4.6738v-25.799h-4.6738v19.717c-1.036 1.464-2.0181 2.1895-2.9531 2.1895-0.626 0-0.9937-0.3707-1.0957-1.0957-0.057-0.153-0.056641-0.72141-0.056641-1.8164v-18.994h-4.6602zm-10.752 3.8965c1.507 0 2.2285 1.1901 2.2285 3.5781v10.852c0 2.387-0.72152 3.5801-2.2285 3.5801-1.507 0-2.2305-1.1931-2.2305-3.5801v-10.852c0-2.387 0.72347-3.5781 2.2305-3.5781zm3.1328 24.609c-9.566-5e-3 -19.172 5.47e-4 -28.664 1.0605-4.006 0.448-7.3335 3.4495-8.2695 7.5195-1.334 5.797-1.3516 12.127-1.3516 18.096 0 5.969-1.56e-5 12.295 1.334 18.092 0.936 4.07 4.2654 7.0735 8.2734 7.5215 9.49 1.061 19.097 1.0645 28.662 1.0605 9.566 5e-3 19.169 4.53e-4 28.662-1.0605 4.006-0.448 7.3374-3.4515 8.2734-7.5215 1.333-5.797 1.3398-12.123 1.3398-18.092-1e-3 -5.97 0.008781-12.299-1.3242-18.096-0.937-4.071-4.2674-7.0725-8.2754-7.5195-9.489-1.06-19.098-1.0655-28.66-1.0605zm-32.576 8.252h16.125v4.8223h-5.541v29.438h-5.1445v-29.438h-5.4395v-4.8223zm34.105 0h4.625v11.189c1.494-1.839 3.0802-2.7695 4.7812-2.7695 1.84 0 3.0783 0.96986 3.6953 2.8809 0.311 1.027 0.4668 2.7139 0.4668 5.1309v10.168c0 2.361-0.1578 4.0606-0.4668 5.1426-0.618 1.899-1.8553 2.8691-3.6953 2.8691-1.646 0-3.2342-0.91422-4.7812-2.8242v2.4746h-4.625v-34.262zm24.139 8.4238c2.321 0 4.161 0.86823 5.457 2.6152 0.969 1.29 1.4316 3.2866 1.4316 6.0156v5.2852h-0.001953-9.25v4.5254c0 2.363 0.77328 3.543 2.3633 3.543 1.139 0 1.8024-0.61947 2.0664-1.8555 0.043-0.251 0.10352-1.2798 0.10352-3.1348h4.7188v0.67578c0 1.491-0.057609 2.5185-0.099609 2.9805-0.155 1.024-0.51908 1.9535-1.0801 2.7715-1.281 1.854-3.1778 2.7676-5.5938 2.7676-2.42 0-4.2626-0.87223-5.5996-2.6152-0.981-1.278-1.4844-3.289-1.4844-6.002v-8.9414c0-2.729 0.44669-4.7256 1.4297-6.0156 1.336-1.747 3.1761-2.6152 5.5391-2.6152zm-41.445 0.30859h4.625v18.795c0 1.084-9.85e-4 1.6468 0.041015 1.7988 0.111 0.718 0.46203 1.082 1.082 1.082 0.928 0 1.8978-0.71502 2.9238-2.166v-19.51h4.6309v25.529h-4.6289v-2.7852c-1.839 2.108-3.5842 3.1348-5.2852 3.1348-1.491 0-2.5175-0.60348-2.9805-1.8965-0.252-0.772-0.4082-1.9949-0.4082-3.7969v-20.186zm24.238 3.8516c-0.762 0-1.5336 0.36-2.3066 1.125v15.561c0.772 0.774 1.5446 1.1387 2.3066 1.1387 1.334 0 2.0117-1.1384 2.0117-3.4434v-10.896c0-2.302-0.67772-3.4844-2.0117-3.4844zm17.166 0c-1.546 0-2.3223 1.181-2.3223 3.541v2.3633h4.625v-2.3633c-1e-3 -2.36-0.77273-3.541-2.3027-3.541z"/></svg>