<svg width="45px" height="45px" version="1.1" viewBox="0 0 453.4 453.4" xmlns="http://www.w3.org/2000/svg"><path transform="scale(10.076)" d="m15.732 0.72266c-0.39054 1.0566-0.78143 2.1132-1.1719 3.1699-2.5547 6.9123-5.1095 13.824-7.6641 20.736l-6.8965 18.664 2.6641 0.98438 6.207-16.795c1.152 1.229 2.5746 2.1206 4.4004 2.5527 2.5784 0.60998 5.296 0.29592 7.8984 0.039063 2.612-0.25815 5.3034-0.62392 7.916-0.17383 3.3572 0.57822 5.5258 2.5888 7.0781 5.5449 2.9454-7.9688 5.8909-15.937 8.8359-23.906-1.5527-2.9562-3.7204-4.9665-7.0781-5.5449-2.6126-0.45-5.3057-0.083822-7.918 0.17383-2.6026 0.25676-5.3198 0.57132-7.8984-0.039063-3.0362-0.71866-4.9567-2.7097-6.373-5.4062zm18.775 8.2285c0.85726 0.021115 1.7125 0.090825 2.5781 0.23047-0.51997 1.407-1.0406 2.8136-1.5605 4.2207 1.7002 0.32693 3.11 1.0692 4.4238 2.1777-0.56691 1.5343-1.1339 3.0674-1.7012 4.6016-1.3135-1.1085-2.7238-1.849-4.4238-2.1758-0.56721 1.5342-1.1342 3.0674-1.7012 4.6016 1.7002 0.32702 3.1101 1.0693 4.4238 2.1777-0.51997 1.407-1.0387 2.814-1.5586 4.2207-1.3135-1.1084-2.7237-1.8514-4.4238-2.1777 0.51997-1.4071 1.0386-2.8138 1.5586-4.2207-1.7311-0.27919-3.4213-0.27681-5.168-0.16992-0.51987 1.407-1.0387 2.8138-1.5586 4.2207-1.8073 0.146-3.6088 0.3543-5.416 0.5 0.51987-1.4072 1.0387-2.814 1.5586-4.2207-1.7467 0.10699-3.4369 0.10751-5.168-0.17188-0.51997 1.407-1.0386 2.8139-1.5586 4.2207-1.6999-0.32653-3.1107-1.0672-4.4238-2.1758 0.51987-1.4068 1.0387-2.8139 1.5586-4.2207 1.3137 1.1086 2.7236 1.8491 4.4238 2.1758 0.56691-1.5342 1.1343-3.0674 1.7012-4.6016-1.7001-0.32603-3.1103-1.0697-4.4238-2.1777 0.56711-1.5344 1.1342-3.0693 1.7012-4.6035 1.3137 1.1089 2.7237 1.8504 4.4238 2.1777 0.51996-1.407 1.0406-2.8139 1.5605-4.2207 1.7311 0.27919 3.4215 0.27711 5.168 0.16992-0.51987 1.4069-1.0406 2.8138-1.5605 4.2207 1.8072-0.146 3.6087-0.35215 5.416-0.49805 0.51987-1.4069 1.0407-2.8137 1.5605-4.2207 0.87344-0.053495 1.7326-0.081662 2.5898-0.060547zm-4.1504 4.2813c-0.56701 1.5342-1.1342 3.0673-1.7012 4.6016 1.7469-0.10669 3.4367-0.10731 5.168 0.17188 0.56691-1.5342 1.1343-3.0693 1.7012-4.6035-1.7311-0.27929-3.4211-0.27711-5.168-0.16992zm-1.7012 4.6016c-1.8074 0.146-3.6088 0.3542-5.416 0.5-0.56701 1.5343-1.1341 3.0692-1.7012 4.6035 1.8073-0.1461 3.6088-0.3541 5.416-0.5 0.56701-1.5341 1.1342-3.0693 1.7012-4.6035zm-5.416 0.5c0.56711-1.5342 1.1342-3.0694 1.7012-4.6035-1.7472 0.10669-3.4365 0.10907-5.168-0.16992-0.56701 1.5342-1.1342 3.0693-1.7012 4.6035 1.7312 0.27949 3.4211 0.27721 5.168 0.16992z" stroke-width=".099249"/></svg>